<?xml version="1.0" standalone="no"?>
<!DOCTYPE svg PUBLIC "-//W3C//DTD SVG 20010904//EN"
 "http://www.w3.org/TR/2001/REC-SVG-20010904/DTD/svg10.dtd">
<svg version="1.0" xmlns="http://www.w3.org/2000/svg"
 width="512.000000pt" height="512.000000pt" viewBox="0 0 512.000000 512.000000"
 preserveAspectRatio="xMidYMid meet">

<g transform="translate(0.000000,512.000000) scale(0.100000,-0.100000)"
fill="#000000" stroke="none">
<path d="M4780 4308 l0 -202 61 59 c82 81 98 105 105 158 9 64 -23 129 -80
162 -24 14 -52 25 -64 25 -22 0 -22 -2 -22 -202z"/>
<path d="M172 4345 c3 -93 6 -107 26 -127 l23 -23 1059 0 1059 0 23 23 c20 20
23 34 26 127 l4 105 -1112 0 -1112 0 4 -105z"/>
<path d="M4438 4243 l-168 -168 0 -240 0 -240 170 170 170 170 -2 238 -3 237
-167 -167z"/>
<path d="M340 2400 l0 -1620 -132 0 c-144 0 -173 -8 -197 -51 -17 -31 -9 -71
21 -99 22 -20 25 -20 2273 -20 l2252 0 23 25 c32 34 32 87 2 118 l-23 22 -914
3 -915 2 0 703 0 702 -23 39 c-36 64 -68 81 -147 81 -79 0 -111 -17 -147 -81
l-23 -39 0 -702 0 -703 -85 0 -85 0 0 1620 0 1620 -940 0 -940 0 0 -1620z
m1597 1439 c40 -15 73 -48 94 -94 17 -38 19 -80 19 -705 0 -625 -2 -667 -19
-705 -21 -46 -54 -79 -94 -94 -39 -15 -1275 -15 -1314 0 -40 15 -73 48 -94 94
-17 38 -19 80 -19 703 0 716 -1 702 53 761 47 51 37 50 714 51 424 0 641 -4
660 -11z m680 -1721 c15 -14 23 -33 23 -54 0 -46 -9 -63 -42 -80 -24 -12 -36
-13 -64 -4 -39 13 -54 35 -54 81 0 70 85 106 137 57z m-734 -88 c20 -13 45
-41 56 -61 20 -35 21 -51 21 -465 0 -425 -1 -429 -23 -469 -14 -26 -37 -48
-67 -63 l-44 -22 -546 0 -546 0 -44 22 c-30 15 -53 37 -67 63 -22 40 -23 43
-23 470 0 418 1 431 21 464 26 43 56 68 94 80 17 6 260 9 581 8 l550 -2 37
-25z"/>
<path d="M680 3040 l0 -640 129 0 129 0 4 123 c4 139 19 179 84 237 66 58 93
65 254 65 161 0 188 -7 254 -65 65 -58 80 -98 84 -237 l4 -123 129 0 129 0 0
640 0 640 -600 0 -600 0 0 -640z"/>
<path d="M1163 2645 c-45 -19 -53 -42 -53 -149 l0 -96 170 0 170 0 0 96 c0
109 -8 130 -55 150 -44 18 -189 18 -232 -1z"/>
<path d="M770 1505 l0 -385 510 0 510 0 0 385 0 385 -510 0 -510 0 0 -385z
m826 182 c31 -37 31 -81 -1 -112 l-24 -25 -291 0 -291 0 -24 25 c-41 40 -26
113 29 135 11 5 146 8 299 7 l279 -2 24 -28z m-2 -253 c37 -38 36 -84 -5 -118
l-31 -26 -278 0 -278 0 -31 26 c-41 34 -42 80 -5 118 l27 26 287 0 287 0 27
-26z"/>
<path d="M3917 3722 l-167 -167 0 -240 0 -240 175 175 175 175 0 232 c0 128
-3 233 -8 233 -4 0 -83 -75 -175 -168z"/>
<path d="M3408 3213 l-168 -168 0 -240 0 -240 170 170 170 170 -2 238 -3 237
-167 -167z"/>
<path d="M2865 2670 c-109 -109 -197 -201 -195 -203 3 -3 21 -12 41 -21 65
-30 117 -84 152 -156 l33 -69 87 87 87 88 -2 237 -3 237 -200 -200z"/>
<path d="M4834 770 c-56 -22 -70 -91 -28 -134 26 -25 31 -26 143 -26 104 0
120 2 139 20 46 43 37 109 -18 137 -29 14 -203 17 -236 3z"/>
</g>
</svg>
