<?xml version="1.0" standalone="no"?>
<!DOCTYPE svg PUBLIC "-//W3C//DTD SVG 20010904//EN"
 "http://www.w3.org/TR/2001/REC-SVG-20010904/DTD/svg10.dtd">
<svg version="1.0" xmlns="http://www.w3.org/2000/svg"
 width="512.000000pt" height="512.000000pt" viewBox="0 0 512.000000 512.000000"
 preserveAspectRatio="xMidYMid meet">

<g transform="translate(0.000000,512.000000) scale(0.100000,-0.100000)"
fill="#000000" stroke="none">
<path d="M4707 4589 c-107 -25 -95 -14 -1229 -1147 l-1088 -1087 0 797 0 796
43 26 c24 14 56 41 71 60 47 63 56 105 56 273 0 160 -9 203 -45 217 -22 8
-2448 8 -2470 0 -36 -14 -45 -57 -45 -217 0 -168 9 -210 56 -273 15 -19 47
-46 71 -60 l43 -26 0 -1629 0 -1629 -60 0 c-46 0 -64 -4 -80 -20 -43 -43 -34
-110 20 -137 34 -17 4450 -19 4499 -2 43 15 66 60 52 101 -21 61 27 57 -873
58 l-828 0 0 602 0 603 1083 1085 c1215 1217 1130 1121 1131 1275 1 66 -4 90
-25 136 -51 107 -142 181 -241 194 -90 12 -104 13 -141 4z m158 -188 c37 -21
72 -72 81 -118 11 -61 -11 -108 -91 -191 l-74 -77 -1 208 0 207 28 -6 c15 -4
40 -14 57 -23z m-2475 -132 c0 -90 -9 -123 -39 -146 -23 -18 -2119 -18 -2142
0 -30 23 -39 56 -39 146 l0 91 1110 0 1110 0 0 -91z m2050 -594 l-170 -170 0
240 0 240 168 168 167 167 3 -237 2 -238 -170 -170z m-2220 -1360 l0 -1625
-940 0 -940 0 0 1625 0 1625 940 0 940 0 0 -1625z m1713 853 c-92 -92 -171
-168 -175 -168 -5 0 -8 105 -8 232 l0 233 173 173 172 172 3 -237 2 -237 -167
-168z m-515 -515 c-90 -90 -166 -163 -170 -163 -5 0 -8 105 -8 232 l0 233 168
168 167 167 3 -237 2 -237 -162 -163z m-435 -435 l-87 -88 -19 50 c-23 63
-104 152 -163 181 l-46 22 198 198 199 199 3 -237 2 -237 -87 -88z m-366 1
c38 -14 83 -57 99 -96 11 -26 14 -160 14 -733 l0 -700 -170 0 -170 0 0 699 c0
470 3 709 11 728 32 86 133 134 216 102z"/>
<path d="M642 3758 c-54 -12 -107 -64 -122 -118 -7 -26 -10 -256 -8 -707 3
-752 -1 -707 80 -761 l42 -27 646 0 646 0 42 27 c82 55 77 6 77 784 l0 690
-27 41 c-53 81 -24 78 -718 80 -370 1 -632 -3 -658 -9z m1236 -805 l-3 -638
-125 0 -125 0 -5 120 c-6 133 -19 174 -75 230 -63 62 -93 70 -265 70 -172 0
-202 -8 -265 -70 -56 -56 -69 -97 -75 -230 l-5 -120 -125 0 -125 0 -3 638 -2
637 600 0 600 0 -2 -637z m-475 -394 c37 -17 47 -50 47 -154 l0 -95 -170 0
-170 0 0 95 c0 101 10 137 44 153 29 14 219 15 249 1z"/>
<path d="M695 1956 c-41 -18 -83 -69 -90 -109 -3 -18 -5 -222 -3 -454 3 -408
4 -422 24 -449 29 -40 65 -64 110 -74 51 -12 1037 -12 1088 0 45 10 81 34 110
74 20 27 21 39 21 476 0 437 -1 449 -21 476 -11 15 -33 37 -48 48 -27 21 -39
21 -594 23 -456 2 -573 0 -597 -11z m1095 -541 l0 -385 -510 0 -510 0 0 385 0
385 510 0 510 0 0 -385z"/>
<path d="M966 1604 c-33 -34 -34 -74 -2 -111 l24 -28 292 0 292 0 24 28 c32
37 31 77 -2 111 l-27 26 -287 0 -287 0 -27 -26z"/>
<path d="M1003 1373 c-31 -6 -63 -50 -63 -85 0 -17 10 -39 25 -53 l24 -25 291
0 291 0 24 25 c32 31 32 75 1 112 l-24 28 -274 1 c-150 1 -283 0 -295 -3z"/>
<path d="M2525 2049 c-75 -43 -50 -159 35 -159 66 0 105 87 63 139 -22 25 -71
35 -98 20z"/>
<path d="M4805 665 c-32 -31 -32 -75 -1 -112 23 -27 28 -28 133 -31 118 -3
147 5 172 49 17 30 9 71 -19 99 -18 18 -34 20 -140 20 -115 0 -122 -1 -145
-25z"/>
</g>
</svg>
